<svg xmlns="http://www.w3.org/2000/svg" viewBox="0 0 120 120" width="120" height="120" role="img">
  <title>Arrivederci — Goodbye</title>
  <rect width="120" height="120" rx="16" fill="#0F1923"/>

  <path d="M35,90 L35,45 Q35,38 42,38 Q49,38 49,45 L49,65" fill="none" stroke="#F5C842" stroke-width="8" stroke-linecap="round"/>
  <path d="M49,65 L49,35 Q49,28 56,28 Q63,28 63,35 L63,65" fill="none" stroke="#F5C842" stroke-width="8" stroke-linecap="round"/>
  <path d="M63,65 L63,40 Q63,33 70,33 Q77,33 77,40 L77,65" fill="none" stroke="#F5C842" stroke-width="8" stroke-linecap="round"/>
  <path d="M77,65 L77,48 Q77,41 84,41 Q91,41 91,48 L91,90" fill="none" stroke="#F5C842" stroke-width="8" stroke-linecap="round"/>
  <path d="M35,90 Q35,100 63,100 Q91,100 91,90" fill="#D4A820"/>
  <path d="M25,50 Q30,45 35,50" fill="none" stroke="#5BB8F5" stroke-width="1.5" stroke-linecap="round"/>
  <path d="M22,58 Q27,53 32,58" fill="none" stroke="#5BB8F5" stroke-width="1.5" stroke-linecap="round" opacity="0.7"/>
</svg>