<svg xmlns="http://www.w3.org/2000/svg" viewBox="0 0 120 120" width="120" height="120" role="img">
  <title>Arrivederci</title>
  <path d="M30,90 L30,48 Q30,38 40,38 Q50,38 50,48 L50,68" fill="none" stroke="#F5C842" stroke-width="5" stroke-linecap="round"/>
  <path d="M50,68 L50,38 Q50,28 60,28 Q70,28 70,38 L70,68" fill="none" stroke="#F5C842" stroke-width="5" stroke-linecap="round"/>
  <path d="M70,68 L70,45 Q70,35 80,35 Q90,35 90,45 L90,90" fill="none" stroke="#F5C842" stroke-width="5" stroke-linecap="round"/>
  <path d="M30,90 Q30,100 60,100 Q90,100 90,90" fill="none" stroke="#D4A820" stroke-width="2.5" stroke-linecap="round"/>
  <path d="M22,50 Q28,44 34,50" fill="none" stroke="#5BB8F5" stroke-width="1.5" stroke-linecap="round"/>
</svg>