<svg xmlns="http://www.w3.org/2000/svg" viewBox="0 0 120 120" width="120" height="120" role="img">
  <title>Buongiorno — Good morning</title>
  <rect width="120" height="120" rx="16" fill="#0F1923"/>

  <circle cx="60" cy="55" r="20" fill="#F5C842"/>
  <circle cx="60" cy="55" r="14" fill="#F5EDD0"/>
  <line x1="60" y1="28" x2="60" y2="20" stroke="#F5C842" stroke-width="2.5" stroke-linecap="round"/>
  <line x1="60" y1="82" x2="60" y2="90" stroke="#F5C842" stroke-width="2.5" stroke-linecap="round"/>
  <line x1="33" y1="55" x2="25" y2="55" stroke="#F5C842" stroke-width="2.5" stroke-linecap="round"/>
  <line x1="87" y1="55" x2="95" y2="55" stroke="#F5C842" stroke-width="2.5" stroke-linecap="round"/>
  <line x1="41" y1="36" x2="35" y2="30" stroke="#F5C842" stroke-width="2" stroke-linecap="round"/>
  <line x1="79" y1="36" x2="85" y2="30" stroke="#F5C842" stroke-width="2" stroke-linecap="round"/>
  <line x1="41" y1="74" x2="35" y2="80" stroke="#F5C842" stroke-width="2" stroke-linecap="round"/>
  <line x1="79" y1="74" x2="85" y2="80" stroke="#F5C842" stroke-width="2" stroke-linecap="round"/>
  <path d="M15,85 L60,100 L105,85 L60,70 Z" fill="#1A6FA8" opacity="0.6"/>
  <path d="M15,85 L15,90 L60,105 L105,90 L105,85 L60,100 Z" fill="#0F4A7A" opacity="0.8"/>
</svg>