<svg xmlns="http://www.w3.org/2000/svg" viewBox="0 0 120 120" width="120" height="120" role="img">
  <title>Chi parla</title>
  <path d="M6,20 L54,20 Q62,20 62,28 L62,52 Q62,60 54,60 L36,60 L28,72 L24,60 L6,60 Q-2,60 -2,52 L-2,28 Q-2,20 6,20 Z" fill="none" stroke="#3A94D4" stroke-width="2"/>
  <text x="30" y="46" text-anchor="middle" font-size="13" fill="#3A94D4" font-family="sans-serif">Chi?</text>
  <path d="M64,36 L112,36 Q120,36 120,44 L120,68 Q120,76 112,76 L94,76 L88,88 L84,76 L64,76 Q56,76 56,68 L56,44 Q56,36 64,36 Z" fill="none" stroke="#5BC875" stroke-width="2"/>
  <text x="88" y="62" text-anchor="middle" font-size="11" fill="#5BC875" font-family="sans-serif">Mario!</text>
</svg>