<svg xmlns="http://www.w3.org/2000/svg" viewBox="0 0 120 120" width="120" height="120" role="img">
  <title>Dieci — Ten</title>
  <rect width="120" height="120" rx="16" fill="#0F1923"/>
  <line x1="17" y1="55" x2="17" y2="38" stroke="#F5C080" stroke-width="4" stroke-linecap="round"/>
  <line x1="24" y1="52" x2="24" y2="34" stroke="#F5C080" stroke-width="4" stroke-linecap="round"/>
  <line x1="31" y1="50" x2="31" y2="32" stroke="#F5C080" stroke-width="4" stroke-linecap="round"/>
  <line x1="38" y1="52" x2="38" y2="34" stroke="#F5C080" stroke-width="4" stroke-linecap="round"/>
  <line x1="45" y1="55" x2="45" y2="38" stroke="#F5C080" stroke-width="4" stroke-linecap="round"/>
  <path d="M12,85 L50,85 L50,65 L12,65 Z" fill="#F5A042"/>
  <line x1="70" y1="55" x2="70" y2="38" stroke="#F5C080" stroke-width="4" stroke-linecap="round"/>
  <line x1="77" y1="52" x2="77" y2="34" stroke="#F5C080" stroke-width="4" stroke-linecap="round"/>
  <line x1="84" y1="50" x2="84" y2="32" stroke="#F5C080" stroke-width="4" stroke-linecap="round"/>
  <line x1="91" y1="52" x2="91" y2="34" stroke="#F5C080" stroke-width="4" stroke-linecap="round"/>
  <line x1="98" y1="55" x2="98" y2="38" stroke="#F5C080" stroke-width="4" stroke-linecap="round"/>
  <path d="M65,85 L103,85 L103,65 L65,65 Z" fill="#F5A042"/>
</svg>