<svg xmlns="http://www.w3.org/2000/svg" viewBox="0 0 120 120" width="120" height="120" role="img">
  <title>La piazza — The square</title>
  <rect width="120" height="120" rx="16" fill="#0F1923"/>
  <path d="M10,85 L60,100 L110,85 L110,70 L60,85 L10,70 Z" fill="#D4BC80"/>
  <path d="M10,70 L60,85 L110,70 L60,55 Z" fill="#F5EDD0"/>
  <ellipse cx="60" cy="63" rx="18" ry="7" fill="#3A94D4" opacity="0.8"/>
  <ellipse cx="60" cy="63" rx="12" ry="5" fill="#5BB8F5"/>
  <path d="M56,63 L56,42 L64,42 L64,63 Z" fill="#D4BC80"/>
  <path d="M64,42 L64,63 L68,60 L68,39 Z" fill="#B0985A"/>
  <path d="M56,42 L64,42 L68,39 L60,39 Z" fill="#F5EDD0"/>
  <path d="M60,42 Q55,32 50,28" fill="none" stroke="#5BB8F5" stroke-width="2" stroke-linecap="round"/>
  <path d="M60,42 Q65,32 70,28" fill="none" stroke="#5BB8F5" stroke-width="2" stroke-linecap="round"/>
  <path d="M60,42 L60,25" fill="none" stroke="#5BB8F5" stroke-width="2.5" stroke-linecap="round"/>
  <circle cx="60" cy="24" r="2.5" fill="#3A94D4"/>
</svg>