<svg xmlns="http://www.w3.org/2000/svg" viewBox="0 0 120 120" width="120" height="120" role="img">
  <title>Vicino — Near</title>
  <rect width="120" height="120" rx="16" fill="#0F1923"/>
  <path d="M15,85 L15,50 L35,40 L35,75 Z" fill="#1A6FA8"/>
  <path d="M35,75 L35,40 L55,50 L55,85 Z" fill="#3A94D4"/>
  <path d="M15,50 L35,40 L55,50 L35,60 Z" fill="#5BB8F5"/>
  <path d="M58,85 L58,52 L78,42 L78,75 Z" fill="#1A7A35"/>
  <path d="M78,75 L78,42 L98,52 L98,85 Z" fill="#3AAD55"/>
  <path d="M58,52 L78,42 L98,52 L78,62 Z" fill="#5BC875"/>
  <line x1="55" y1="65" x2="58" y2="65" stroke="#F5C842" stroke-width="2"/>
  <path d="M53,62 L55,65 L53,68" fill="none" stroke="#F5C842" stroke-width="1.5" stroke-linecap="round"/>
  <path d="M60,62 L58,65 L60,68" fill="none" stroke="#F5C842" stroke-width="1.5" stroke-linecap="round"/>
</svg>